# xmcd
#
# Track frame offsets:
#	150
#	39087
#	64477
#	82570
#	88638
#	113441
#	157094
#	176399
#	188046
#	197560
#	211043
#
# Disc length: 2995 seconds
#
# Revision: 3
# Processed by: cddbd v1.5.2PL0 Copyright (c) Steve Scherf et al.
# Submitted via: EasyCDDAExtractor 16.0.8.1
#
DISCID=7b0bb10b
DTITLE=김준희 해금산조 네바탕 - 김준희 해금산조 네바탕 CD2
DYEAR=2012
DGENRE=National Folk
TTITLE0=서용석류 - 진양
TTITLE1=서용석류 - 중모리
TTITLE2=서용석류 - 중중모리
TTITLE3=서용석류 - 빠른 중중모리
TTITLE4=서용석류 - 지진모리
TTITLE5=김영재류 - 진양
TTITLE6=김영재류 - 중모리
TTITLE7=김영재류 - 중중모리
TTITLE8=김영재류 - 엇모리
TTITLE9=김영재류 - 자진모리
TTITLE10=김영재류 - 단모리
EXTD=
EXTT0=
EXTT1=
EXTT2=
EXTT3=
EXTT4=
EXTT5=
EXTT6=
EXTT7=
EXTT8=
EXTT9=
EXTT10=
PLAYORDER=
